<mxfile host="app.diagrams.net" agent="Mozilla/5.0 (Windows NT 10.0; Win64; x64) AppleWebKit/537.36 (KHTML, like Gecko) Chrome/131.0.0.0 Safari/537.36 Edg/131.0.0.0" version="25.0.3">
  <diagram name="Pagina-1" id="e7fnCYO6wSXCxkB7cOvI">
    <mxGraphModel dx="1042" dy="531" grid="1" gridSize="10" guides="1" tooltips="1" connect="1" arrows="1" fold="1" page="1" pageScale="1" pageWidth="1169" pageHeight="827" math="0" shadow="0">
      <root>
        <mxCell id="0" />
        <mxCell id="1" parent="0" />
        <mxCell id="DAIH-PIFgdvVw3nRxkN4-2" value="" style="rounded=0;whiteSpace=wrap;html=1;" vertex="1" parent="1">
          <mxGeometry x="110" y="200" width="890" height="80" as="geometry" />
        </mxCell>
        <mxCell id="DAIH-PIFgdvVw3nRxkN4-1" value="CAMERA" style="rounded=0;whiteSpace=wrap;html=1;fillColor=none;strokeWidth=3;strokeColor=#3333FF;fontSize=18;" vertex="1" parent="1">
          <mxGeometry x="440" y="200" width="120" height="80" as="geometry" />
        </mxCell>
        <mxCell id="DAIH-PIFgdvVw3nRxkN4-3" value="&lt;font style=&quot;font-size: 18px;&quot;&gt;LEVEL MAP&lt;/font&gt;" style="text;html=1;align=center;verticalAlign=middle;whiteSpace=wrap;rounded=0;" vertex="1" parent="1">
          <mxGeometry x="710" y="225" width="120" height="30" as="geometry" />
        </mxCell>
        <mxCell id="DAIH-PIFgdvVw3nRxkN4-4" value="&lt;font style=&quot;font-size: 18px;&quot;&gt;SCREEN&lt;/font&gt;" style="rounded=0;whiteSpace=wrap;html=1;" vertex="1" parent="1">
          <mxGeometry x="440" y="360" width="120" height="80" as="geometry" />
        </mxCell>
        <mxCell id="DAIH-PIFgdvVw3nRxkN4-6" value="" style="html=1;shadow=0;dashed=0;align=center;verticalAlign=middle;shape=mxgraph.arrows2.arrow;dy=0.67;dx=20;notch=0;aspect=fixed;direction=south;" vertex="1" parent="1">
          <mxGeometry x="482" y="290" width="36" height="60" as="geometry" />
        </mxCell>
        <mxCell id="DAIH-PIFgdvVw3nRxkN4-7" value="&lt;font style=&quot;font-size: 18px;&quot;&gt;BLIT&lt;/font&gt;" style="text;html=1;align=center;verticalAlign=middle;whiteSpace=wrap;rounded=0;" vertex="1" parent="1">
          <mxGeometry x="530" y="305" width="60" height="30" as="geometry" />
        </mxCell>
        <mxCell id="DAIH-PIFgdvVw3nRxkN4-8" value="" style="endArrow=classic;html=1;rounded=0;" edge="1" parent="1">
          <mxGeometry width="50" height="50" relative="1" as="geometry">
            <mxPoint x="440" y="180" as="sourcePoint" />
            <mxPoint x="560" y="180" as="targetPoint" />
          </mxGeometry>
        </mxCell>
      </root>
    </mxGraphModel>
  </diagram>
</mxfile>
